<svg xmlns="http://www.w3.org/2000/svg" width="21" height="22.04" viewBox="0 0 21 22.04">
  <defs/>
  <path fill="#cacaca" d="M19.25 2.04h-2.84V.69a.66.66 0 10-1.32 0v1.35h-3.93V.69a.66.66 0 10-1.32 0v1.35H5.91V.69a.66.66 0 10-1.32 0v1.35H1.75A1.79 1.79 0 000 3.9v16.3a1.79 1.79 0 001.75 1.84h17.5A1.79 1.79 0 0021 20.2V3.9a1.79 1.79 0 00-1.75-1.86zm.44 18.13a.45.45 0 01-.44.46H1.75a.45.45 0 01-.44-.46V3.9a.45.45 0 01.44-.46h2.84v1.38a.66.66 0 101.32 0V3.44h3.94v1.38a.67.67 0 00.65.69.68.68 0 00.66-.69V3.44h3.93v1.38a.66.66 0 101.32 0V3.44h2.84a.45.45 0 01.44.46v16.3z"/>
  <path fill="#cacaca" d="M4.59 8.27h2.63v2.06H4.59zm0 3.44h2.63v2.07H4.59zm0 3.44h2.63v2.07H4.59zm4.6 0h2.62v2.07H9.19zm0-3.44h2.62v2.07H9.19zm0-3.44h2.62v2.06H9.19zm4.59 6.88h2.63v2.07h-2.63zm0-3.44h2.63v2.07h-2.63zm0-3.44h2.63v2.06h-2.63z"/>
</svg>
